Coordinates
version=1
nRows=15
nColumns=33
inDegrees=yes

Units are S.I. units (second, meters, Newtons, ...)
Angles are in degrees.

endheader
time	ground_thorax_rot_x	ground_thorax_rot_y	ground_thorax_rot_z	ground_thorax_tx	ground_thorax_ty	ground_thorax_tz	clav_prot_r	clav_elev_r	scapula_abduction_r	scapula_elevation_r	scapula_upward_rot_r	scapula_winging_r	shoulder_elv_r	plane_of_elev_r	axial_rot_r	elbow_flexion_r	pro_sup_r	wrist_flex_r	wrist_dev_r	clav_prot_l	clav_elev_l	scapula_abduction_l	scapula_elevation_l	scapula_upward_rot_l	scapula_winging_l	shoulder_elv_l	plane_of_elev_l	axial_rot_l	elbow_flexion_l	pro_sup_l	wrist_flex_l	wrist_dev_l	
1.3300	5.335675	-2.447386	11.679069	-0.117772	1.045845	0.005416	12.495433	-13.713113	24.287042	-8.347304	5.363738	-4.885750	54.856556	12.036529	-18.696628	135.240918	52.102268	38.413122	-24.413043	10.007423	-9.312987	-16.238044	0.869338	-6.148068	2.681968	57.492157	47.504032	0.802508	116.250969	33.167955	-18.117176	-25.000000	
1.3400	5.328764	-2.353218	11.674222	-0.117597	1.045992	0.005576	12.487466	-13.681860	24.323566	-8.353946	5.455327	-4.914787	54.962343	12.063138	-18.681948	135.175356	52.141405	38.420007	-24.435510	10.051875	-9.337533	-16.270308	0.840714	-6.263487	2.681282	57.494070	47.550796	0.582075	116.221170	33.215495	-18.121827	-25.000000	
1.3500	5.309240	-2.250048	11.665435	-0.117432	1.046163	0.005721	12.474803	-13.630579	24.377702	-8.360102	5.593168	-4.960285	55.089658	12.112069	-18.697222	135.075585	52.199572	38.422299	-24.459079	10.093456	-9.358609	-16.299364	0.810609	-6.374897	2.680713	57.472379	47.624914	0.344223	116.162613	33.293592	-18.160072	-25.000000	
1.3600	5.277964	-2.128149	11.658804	-0.117264	1.046369	0.005832	12.455555	-13.550620	24.444151	-8.356144	5.772386	-5.024603	55.241802	12.164543	-18.750619	134.956381	52.281499	38.419960	-24.499627	10.133983	-9.382231	-16.321820	0.777057	-6.499324	2.676015	57.405139	47.747825	0.071933	116.070991	33.405756	-18.240664	-25.000000	
1.3700	5.231492	-1.995596	11.655572	-0.117088	1.046587	0.005901	12.434499	-13.431631	24.532766	-8.333693	5.995866	-5.117214	55.399892	12.228911	-18.851366	134.813312	52.409286	38.407819	-24.570183	10.164951	-9.396825	-16.324633	0.731781	-6.631710	2.665843	57.262115	47.929225	-0.263427	115.939157	33.654222	-18.455872	-24.999999	
1.3800	5.172128	-1.858005	11.653358	-0.116909	1.046814	0.005938	12.412634	-13.276758	24.646203	-8.295989	6.265064	-5.237602	55.563226	12.309089	-18.994037	134.637772	52.569904	38.383014	-24.663276	10.186461	-9.400053	-16.312285	0.677698	-6.760588	2.653596	57.053283	48.157225	-0.639928	115.777362	34.007418	-18.785163	-24.999999	
1.3900	5.101838	-1.723264	11.654838	-0.116741	1.047044	0.005967	12.394360	-13.090264	24.792368	-8.246957	6.580792	-5.386940	55.723775	12.415844	-19.165959	134.418363	52.743860	38.340965	-24.767016	10.199831	-9.385450	-16.291677	0.614557	-6.873193	2.644827	56.799124	48.402538	-1.041583	115.601464	34.447773	-19.215247	-24.999999	
1.4000	5.025867	-1.587633	11.656111	-0.116593	1.047291	0.005999	12.377865	-12.879450	24.970030	-8.194091	6.945744	-5.560550	55.896083	12.544277	-19.355734	134.147939	52.888694	38.282467	-24.860556	10.214032	-9.358906	-16.281270	0.551059	-6.961824	2.645813	56.541524	48.640902	-1.422734	115.429539	34.840866	-19.635034	-24.999998	
1.4100	4.944167	-1.456197	11.657725	-0.116469	1.047531	0.006034	12.373955	-12.625687	25.202900	-8.123800	7.369181	-5.777653	56.062830	12.699112	-19.566191	133.830221	52.981190	38.200630	-24.936460	10.228829	-9.306123	-16.285853	0.480934	-7.011242	2.663945	56.276407	48.864077	-1.781403	115.264708	35.173565	-20.054057	-24.999996	
1.4200	4.860837	-1.324916	11.665188	-0.116381	1.047778	0.006075	12.380827	-12.335027	25.488423	-8.041422	7.851049	-6.033565	56.236147	12.868030	-19.785641	133.457878	52.985840	38.103987	-24.980404	10.251369	-9.235432	-16.316906	0.410550	-7.024128	2.701082	56.033640	49.052447	-2.084897	115.117772	35.347770	-20.385368	-24.999994	
1.4300	4.778655	-1.191371	11.679015	-0.116329	1.048023	0.006114	12.400216	-11.996528	25.835308	-7.940173	8.400188	-6.336766	56.417014	13.047231	-20.010971	133.031830	52.895926	37.993870	-24.998207	10.279951	-9.145117	-16.370148	0.336961	-7.003729	2.755739	55.799768	49.216478	-2.345891	114.981243	35.394728	-20.655534	-24.999989	
1.4400	4.698680	-1.054261	11.706691	-0.116314	1.048265	0.006137	12.440167	-11.593182	26.263273	-7.808176	9.025979	-6.703124	56.594201	13.217791	-20.241442	132.550817	52.686569	37.895339	-24.999136	10.312894	-9.035477	-16.439708	0.257167	-6.957504	2.825124	55.553747	49.364897	-2.582317	114.847546	35.344670	-20.894860	-24.999980	
1.4500	4.619460	-0.919392	11.747467	-0.116333	1.048503	0.006140	12.496023	-11.128910	26.766630	-7.649086	9.730307	-7.127665	56.765547	13.403577	-20.442347	132.008116	52.361505	37.756555	-24.999903	10.341504	-8.905521	-16.508179	0.167477	-6.891892	2.901962	55.269176	49.513144	-2.829546	114.707131	35.316189	-21.193269	-24.999964	
1.4600	4.541339	-0.783926	11.808528	-0.116372	1.048767	0.006145	12.552512	-10.627015	27.309735	-7.476647	10.493744	-7.582781	56.943772	13.598758	-20.569990	131.400720	51.828320	37.464986	-24.999949	10.364427	-8.779407	-16.568958	0.083658	-6.821078	2.974560	54.970825	49.642957	-3.081310	114.568088	35.327174	-21.531769	-24.999935	
1.4700	4.462484	-0.643328	11.880607	-0.116412	1.049082	0.006167	12.586031	-10.125738	27.850095	-7.321502	11.308532	-8.030392	57.168305	13.808885	-20.601507	130.721078	51.098672	36.898934	-24.999909	10.377905	-8.673928	-16.613710	0.018003	-6.751918	3.033308	54.686633	49.754892	-3.330585	114.429412	35.376807	-21.882726	-24.999888	
